<mxfile host="app.diagrams.net" agent="Mozilla/5.0 (Macintosh; Intel Mac OS X 10_15_7) AppleWebKit/537.36 (KHTML, like Gecko) Chrome/138.0.0.0 Safari/537.36" version="28.1.0">
  <diagram name="Page-1" id="Zwpuqf_YTuUUo8gKpCjg">
    <mxGraphModel dx="2884" dy="1317" grid="1" gridSize="10" guides="1" tooltips="1" connect="1" arrows="1" fold="1" page="1" pageScale="1" pageWidth="827" pageHeight="1169" math="0" shadow="0">
      <root>
        <mxCell id="0" />
        <mxCell id="1" parent="0" />
        <mxCell id="VqeCZqD9yjvprAk1Ezd1-1" value="NotificationEngineMessage" style="swimlane;fontStyle=0;childLayout=stackLayout;horizontal=1;startSize=26;fillColor=none;horizontalStack=0;resizeParent=1;resizeParentMax=0;resizeLast=0;collapsible=1;marginBottom=0;whiteSpace=wrap;html=1;" parent="1" vertex="1">
          <mxGeometry x="600" y="90" width="200" height="130" as="geometry">
            <mxRectangle x="250" y="110" width="190" height="30" as="alternateBounds" />
          </mxGeometry>
        </mxCell>
        <mxCell id="VqeCZqD9yjvprAk1Ezd1-2" value="+ personID: String" style="text;strokeColor=none;fillColor=none;align=left;verticalAlign=top;spacingLeft=4;spacingRight=4;overflow=hidden;rotatable=0;points=[[0,0.5],[1,0.5]];portConstraint=eastwest;whiteSpace=wrap;html=1;" parent="VqeCZqD9yjvprAk1Ezd1-1" vertex="1">
          <mxGeometry y="26" width="200" height="26" as="geometry" />
        </mxCell>
        <mxCell id="VqeCZqD9yjvprAk1Ezd1-3" value="+ payload: NotificationPayload" style="text;strokeColor=none;fillColor=none;align=left;verticalAlign=top;spacingLeft=4;spacingRight=4;overflow=hidden;rotatable=0;points=[[0,0.5],[1,0.5]];portConstraint=eastwest;whiteSpace=wrap;html=1;" parent="VqeCZqD9yjvprAk1Ezd1-1" vertex="1">
          <mxGeometry y="52" width="200" height="26" as="geometry" />
        </mxCell>
        <mxCell id="VqeCZqD9yjvprAk1Ezd1-4" value="+ messageType: String&lt;div&gt;&lt;br&gt;&lt;div&gt;+ idempotencyKey: String? = null&lt;/div&gt;&lt;/div&gt;" style="text;strokeColor=none;fillColor=none;align=left;verticalAlign=top;spacingLeft=4;spacingRight=4;overflow=hidden;rotatable=0;points=[[0,0.5],[1,0.5]];portConstraint=eastwest;whiteSpace=wrap;html=1;" parent="VqeCZqD9yjvprAk1Ezd1-1" vertex="1">
          <mxGeometry y="78" width="200" height="52" as="geometry" />
        </mxCell>
        <mxCell id="VqeCZqD9yjvprAk1Ezd1-9" value="Notification Publishing System" style="rounded=1;whiteSpace=wrap;html=1;fillColor=#f8cecc;strokeColor=#b85450;" parent="1" vertex="1">
          <mxGeometry x="426" y="20" width="120" height="60" as="geometry" />
        </mxCell>
        <mxCell id="VqeCZqD9yjvprAk1Ezd1-12" value="SQS: SendMessage" style="text;html=1;align=center;verticalAlign=middle;whiteSpace=wrap;rounded=0;" parent="1" vertex="1">
          <mxGeometry x="670" y="50" width="60" height="30" as="geometry" />
        </mxCell>
        <mxCell id="49v1vKMZtB3G8OhnLPRT-10" style="edgeStyle=orthogonalEdgeStyle;rounded=0;orthogonalLoop=1;jettySize=auto;html=1;exitX=0.5;exitY=1;exitDx=0;exitDy=0;entryX=0.5;entryY=0;entryDx=0;entryDy=0;" edge="1" parent="1" source="49v1vKMZtB3G8OhnLPRT-3" target="49v1vKMZtB3G8OhnLPRT-9">
          <mxGeometry relative="1" as="geometry" />
        </mxCell>
        <mxCell id="49v1vKMZtB3G8OhnLPRT-3" value="Has messaged already&lt;div&gt;&amp;nbsp;been successfully processed?&lt;/div&gt;" style="rhombus;whiteSpace=wrap;html=1;" vertex="1" parent="1">
          <mxGeometry x="355" y="440" width="210" height="120" as="geometry" />
        </mxCell>
        <mxCell id="49v1vKMZtB3G8OhnLPRT-6" value="RETURN" style="strokeWidth=2;html=1;shape=mxgraph.flowchart.terminator;whiteSpace=wrap;fillColor=#d5e8d4;strokeColor=#82b366;" vertex="1" parent="1">
          <mxGeometry x="245" y="475" width="80" height="50" as="geometry" />
        </mxCell>
        <mxCell id="49v1vKMZtB3G8OhnLPRT-9" value="Determine which channels to route to based on message type and user preferences" style="rounded=1;whiteSpace=wrap;html=1;absoluteArcSize=1;arcSize=14;strokeWidth=2;" vertex="1" parent="1">
          <mxGeometry x="410" y="600" width="100" height="100" as="geometry" />
        </mxCell>
        <mxCell id="49v1vKMZtB3G8OhnLPRT-16" value="Push Renderer and Dispatcher" style="rounded=1;whiteSpace=wrap;html=1;absoluteArcSize=1;arcSize=14;strokeWidth=2;" vertex="1" parent="1">
          <mxGeometry x="414" y="740" width="100" height="100" as="geometry" />
        </mxCell>
        <mxCell id="49v1vKMZtB3G8OhnLPRT-17" value="Email Renderer and Dispatcher" style="rounded=1;whiteSpace=wrap;html=1;absoluteArcSize=1;arcSize=14;strokeWidth=2;" vertex="1" parent="1">
          <mxGeometry x="414" y="870" width="100" height="100" as="geometry" />
        </mxCell>
        <mxCell id="49v1vKMZtB3G8OhnLPRT-21" value="NS: capability-platform Pod: pis-server-v1-XXX" style="fillColor=none;strokeColor=#5A6C86;dashed=1;verticalAlign=top;fontStyle=0;fontColor=#5A6C86;whiteSpace=wrap;html=1;" vertex="1" parent="1">
          <mxGeometry x="-180" y="980" width="340" height="175" as="geometry" />
        </mxCell>
        <mxCell id="49v1vKMZtB3G8OhnLPRT-53" value="Send email to recipient" style="rounded=1;whiteSpace=wrap;html=1;absoluteArcSize=1;arcSize=14;strokeWidth=2;" vertex="1" parent="1">
          <mxGeometry x="920" y="880" width="100" height="100" as="geometry" />
        </mxCell>
        <mxCell id="49v1vKMZtB3G8OhnLPRT-54" value="Send Push Notification to all tokens" style="rounded=1;whiteSpace=wrap;html=1;absoluteArcSize=1;arcSize=14;strokeWidth=2;" vertex="1" parent="1">
          <mxGeometry x="920" y="740" width="100" height="100" as="geometry" />
        </mxCell>
        <mxCell id="49v1vKMZtB3G8OhnLPRT-58" value="" style="group" vertex="1" connectable="0" parent="1">
          <mxGeometry x="240" y="410" width="440" height="650" as="geometry" />
        </mxCell>
        <mxCell id="49v1vKMZtB3G8OhnLPRT-49" value="NS: capability-platform Pod: Notifications-server-v1" style="fillColor=none;strokeColor=#5A6C86;dashed=1;verticalAlign=top;fontStyle=0;fontColor=#5A6C86;whiteSpace=wrap;html=1;" vertex="1" parent="49v1vKMZtB3G8OhnLPRT-58">
          <mxGeometry width="440" height="650" as="geometry" />
        </mxCell>
        <mxCell id="49v1vKMZtB3G8OhnLPRT-73" value="&lt;span style=&quot;color: rgba(0, 0, 0, 0); font-family: monospace; font-size: 0px; text-align: start;&quot;&gt;%3CmxGraphModel%3E%3Croot%3E%3CmxCell%20id%3D%220%22%2F%3E%3CmxCell%20id%3D%221%22%20parent%3D%220%22%2F%3E%3CmxCell%20id%3D%222%22%20value%3D%22NS%3A%20capability-platform%20Pod%3A%20Notifications-server-v1%22%20style%3D%22fillColor%3Dnone%3BstrokeColor%3D%235A6C86%3Bdashed%3D1%3BverticalAlign%3Dtop%3BfontStyle%3D0%3BfontColor%3D%235A6C86%3BwhiteSpace%3Dwrap%3Bhtml%3D1%3B%22%20vertex%3D%221%22%20parent%3D%221%22%3E%3CmxGeometry%20x%3D%22240%22%20y%3D%22410%22%20width%3D%22440%22%20height%3D%22650%22%20as%3D%22geometry%22%2F%3E%3C%2FmxCell%3E%3C%2Froot%3E%3C%2FmxGraphModel%3E&lt;/span&gt;" style="sketch=0;points=[[0,0,0],[0.25,0,0],[0.5,0,0],[0.75,0,0],[1,0,0],[0,1,0],[0.25,1,0],[0.5,1,0],[0.75,1,0],[1,1,0],[0,0.25,0],[0,0.5,0],[0,0.75,0],[1,0.25,0],[1,0.5,0],[1,0.75,0]];outlineConnect=0;fontColor=#232F3E;fillColor=#ED7100;strokeColor=#ffffff;dashed=0;verticalLabelPosition=bottom;verticalAlign=top;align=center;html=1;fontSize=12;fontStyle=0;aspect=fixed;shape=mxgraph.aws4.resourceIcon;resIcon=mxgraph.aws4.eks;" vertex="1" parent="49v1vKMZtB3G8OhnLPRT-58">
          <mxGeometry x="10" y="10" width="21.196306704134887" height="21.196306704134887" as="geometry" />
        </mxCell>
        <mxCell id="49v1vKMZtB3G8OhnLPRT-60" value="" style="sketch=0;points=[[0,0,0],[0.25,0,0],[0.5,0,0],[0.75,0,0],[1,0,0],[0,1,0],[0.25,1,0],[0.5,1,0],[0.75,1,0],[1,1,0],[0,0.25,0],[0,0.5,0],[0,0.75,0],[1,0.25,0],[1,0.5,0],[1,0.75,0]];outlineConnect=0;fontColor=#232F3E;fillColor=#ED7100;strokeColor=#ffffff;dashed=0;verticalLabelPosition=bottom;verticalAlign=top;align=center;html=1;fontSize=12;fontStyle=0;aspect=fixed;shape=mxgraph.aws4.resourceIcon;resIcon=mxgraph.aws4.eks;" vertex="1" parent="1">
          <mxGeometry x="-170" y="990" width="21.196306704134887" height="21.196306704134887" as="geometry" />
        </mxCell>
        <mxCell id="49v1vKMZtB3G8OhnLPRT-61" value="Identity Service" style="fillColor=none;strokeColor=#5A6C86;dashed=1;verticalAlign=top;fontStyle=0;fontColor=#5A6C86;whiteSpace=wrap;html=1;" vertex="1" parent="1">
          <mxGeometry x="-135" y="1020" width="250" height="120" as="geometry" />
        </mxCell>
        <mxCell id="49v1vKMZtB3G8OhnLPRT-62" value="GetCurrentPerson" style="rounded=1;whiteSpace=wrap;html=1;absoluteArcSize=1;arcSize=14;strokeWidth=2;" vertex="1" parent="1">
          <mxGeometry x="-75" y="1050" width="130" height="70" as="geometry" />
        </mxCell>
        <mxCell id="49v1vKMZtB3G8OhnLPRT-66" value="Salesforce" style="fillColor=none;strokeColor=#5A6C86;dashed=1;verticalAlign=top;fontStyle=0;fontColor=#5A6C86;whiteSpace=wrap;html=1;" vertex="1" parent="1">
          <mxGeometry x="-180" y="570" width="340" height="175" as="geometry" />
        </mxCell>
        <mxCell id="49v1vKMZtB3G8OhnLPRT-63" value="cp-device-tokens" style="fillColor=none;strokeColor=#5A6C86;dashed=1;verticalAlign=top;fontStyle=0;fontColor=#5A6C86;whiteSpace=wrap;html=1;" vertex="1" parent="1">
          <mxGeometry x="-180" y="780" width="340" height="175" as="geometry" />
        </mxCell>
        <mxCell id="49v1vKMZtB3G8OhnLPRT-65" value="" style="outlineConnect=0;dashed=0;verticalLabelPosition=bottom;verticalAlign=top;align=center;html=1;shape=mxgraph.aws3.dynamo_db;fillColor=#2E73B8;gradientColor=none;" vertex="1" parent="1">
          <mxGeometry x="-55" y="840" width="90" height="90" as="geometry" />
        </mxCell>
        <mxCell id="49v1vKMZtB3G8OhnLPRT-68" value="" style="verticalLabelPosition=bottom;aspect=fixed;html=1;shape=mxgraph.salesforce.analytics;" vertex="1" parent="1">
          <mxGeometry x="-55" y="626.2" width="85.51" height="83.8" as="geometry" />
        </mxCell>
        <mxCell id="49v1vKMZtB3G8OhnLPRT-37" value="" style="sketch=0;points=[[0,0,0],[0.25,0,0],[0.5,0,0],[0.75,0,0],[1,0,0],[0,1,0],[0.25,1,0],[0.5,1,0],[0.75,1,0],[1,1,0],[0,0.25,0],[0,0.5,0],[0,0.75,0],[1,0.25,0],[1,0.5,0],[1,0.75,0]];outlineConnect=0;fontColor=#232F3E;fillColor=#E7157B;strokeColor=#ffffff;dashed=0;verticalLabelPosition=bottom;verticalAlign=top;align=center;html=1;fontSize=12;fontStyle=0;aspect=fixed;shape=mxgraph.aws4.resourceIcon;resIcon=mxgraph.aws4.sqs;" vertex="1" parent="1">
          <mxGeometry x="746" y="896" width="48" height="48" as="geometry" />
        </mxCell>
        <mxCell id="49v1vKMZtB3G8OhnLPRT-43" value="" style="sketch=0;points=[[0,0,0],[0.25,0,0],[0.5,0,0],[0.75,0,0],[1,0,0],[0,1,0],[0.25,1,0],[0.5,1,0],[0.75,1,0],[1,1,0],[0,0.25,0],[0,0.5,0],[0,0.75,0],[1,0.25,0],[1,0.5,0],[1,0.75,0]];outlineConnect=0;fontColor=#232F3E;fillColor=#E7157B;strokeColor=#ffffff;dashed=0;verticalLabelPosition=bottom;verticalAlign=top;align=center;html=1;fontSize=12;fontStyle=0;aspect=fixed;shape=mxgraph.aws4.resourceIcon;resIcon=mxgraph.aws4.sqs;" vertex="1" parent="1">
          <mxGeometry x="746" y="772" width="48" height="48" as="geometry" />
        </mxCell>
        <mxCell id="VqeCZqD9yjvprAk1Ezd1-10" value="" style="sketch=0;points=[[0,0,0],[0.25,0,0],[0.5,0,0],[0.75,0,0],[1,0,0],[0,1,0],[0.25,1,0],[0.5,1,0],[0.75,1,0],[1,1,0],[0,0.25,0],[0,0.5,0],[0,0.75,0],[1,0.25,0],[1,0.5,0],[1,0.75,0]];outlineConnect=0;fontColor=#232F3E;fillColor=#E7157B;strokeColor=#ffffff;dashed=0;verticalLabelPosition=bottom;verticalAlign=top;align=center;html=1;fontSize=12;fontStyle=0;aspect=fixed;shape=mxgraph.aws4.resourceIcon;resIcon=mxgraph.aws4.sqs;" parent="1" vertex="1">
          <mxGeometry x="436" y="300" width="48" height="48" as="geometry" />
        </mxCell>
        <mxCell id="49v1vKMZtB3G8OhnLPRT-69" value="dispatch-push-notification" style="rounded=1;whiteSpace=wrap;html=1;" vertex="1" parent="1">
          <mxGeometry x="700" y="830" width="140" height="30" as="geometry" />
        </mxCell>
        <mxCell id="49v1vKMZtB3G8OhnLPRT-70" value="dispatch-email-notification" style="rounded=1;whiteSpace=wrap;html=1;" vertex="1" parent="1">
          <mxGeometry x="695" y="955" width="150" height="30" as="geometry" />
        </mxCell>
        <mxCell id="49v1vKMZtB3G8OhnLPRT-71" value="notification-engine" style="rounded=1;whiteSpace=wrap;html=1;" vertex="1" parent="1">
          <mxGeometry x="530" y="310" width="150" height="30" as="geometry" />
        </mxCell>
        <mxCell id="49v1vKMZtB3G8OhnLPRT-72" value="NS: capability-platform Pod: Notifications-server-v1" style="fillColor=none;strokeColor=#5A6C86;dashed=1;verticalAlign=top;fontStyle=0;fontColor=#5A6C86;whiteSpace=wrap;html=1;" vertex="1" parent="1">
          <mxGeometry x="850" y="410" width="220" height="650" as="geometry" />
        </mxCell>
        <mxCell id="49v1vKMZtB3G8OhnLPRT-50" value="&lt;span style=&quot;color: rgba(0, 0, 0, 0); font-family: monospace; font-size: 0px; text-align: start;&quot;&gt;%3CmxGraphModel%3E%3Croot%3E%3CmxCell%20id%3D%220%22%2F%3E%3CmxCell%20id%3D%221%22%20parent%3D%220%22%2F%3E%3CmxCell%20id%3D%222%22%20value%3D%22NS%3A%20capability-platform%20Pod%3A%20Notifications-server-v1%22%20style%3D%22fillColor%3Dnone%3BstrokeColor%3D%235A6C86%3Bdashed%3D1%3BverticalAlign%3Dtop%3BfontStyle%3D0%3BfontColor%3D%235A6C86%3BwhiteSpace%3Dwrap%3Bhtml%3D1%3B%22%20vertex%3D%221%22%20parent%3D%221%22%3E%3CmxGeometry%20x%3D%22240%22%20y%3D%22410%22%20width%3D%22440%22%20height%3D%22650%22%20as%3D%22geometry%22%2F%3E%3C%2FmxCell%3E%3C%2Froot%3E%3C%2FmxGraphModel%3E&lt;/span&gt;" style="sketch=0;points=[[0,0,0],[0.25,0,0],[0.5,0,0],[0.75,0,0],[1,0,0],[0,1,0],[0.25,1,0],[0.5,1,0],[0.75,1,0],[1,1,0],[0,0.25,0],[0,0.5,0],[0,0.75,0],[1,0.25,0],[1,0.5,0],[1,0.75,0]];outlineConnect=0;fontColor=#232F3E;fillColor=#ED7100;strokeColor=#ffffff;dashed=0;verticalLabelPosition=bottom;verticalAlign=top;align=center;html=1;fontSize=12;fontStyle=0;aspect=fixed;shape=mxgraph.aws4.resourceIcon;resIcon=mxgraph.aws4.eks;" vertex="1" parent="1">
          <mxGeometry x="860.0018867924529" y="418.80638297872343" width="21.196306704134887" height="21.196306704134887" as="geometry" />
        </mxCell>
      </root>
    </mxGraphModel>
  </diagram>
</mxfile>
